<svg xmlns="http://www.w3.org/2000/svg" xmlns:xlink="http://www.w3.org/1999/xlink" width="368pt" height="256pt" viewBox="0 0 368 256"><g id="graph0" class="graph" transform="scale(1 1) rotate(0) translate(4 252)"><polygon fill="none" stroke="none" points="-4 4 -4 -252 364 -252 364 4 -4 4"/><g id="node1" class="node"><title>from</title><polygon fill="none" stroke="#000" points="360 -248 0 -248 0 -219 360 -219 360 -248"/><text x="125" y="-232" font-family="monospace" font-size="10" font-weight="bold" text-anchor="start">FROM</text><text x="156" y="-232" font-family="monospace" font-size="10" text-anchor="start">ubuntu:latest</text></g><g id="node2" class="node"><title>deps</title><polygon fill="none" stroke="#000" points="360 -197 0 -197 0 -168 360 -168 360 -197"/><text x="110" y="-185.5" font-family="monospace" font-size="10" font-weight="bold" text-anchor="start">RUN</text><text x="135" y="-185.5" font-family="monospace" font-size="10" text-anchor="start">apt-get update &amp;&amp; \</text><text x="74.5" y="-175.5" font-family="monospace" font-size="10" text-anchor="start">apt-get install -y build-essentials</text></g><g id="edge1" class="edge"><title>from-&gt;deps</title><path fill="none" stroke="#000" d="M180,-218.77C180,-214.96 180,-211.15 180,-207.33"/><polygon fill="#000" stroke="#000" points="183.5 -207.24 180 -197.24 176.5 -207.24 183.5 -207.24"/></g><g id="node3" class="node"><title>copy</title><polygon fill="none" stroke="red" points="360 -146 0 -146 0 -117 360 -117 360 -146"/><text x="101" y="-130" font-family="monospace" font-size="10" font-weight="bold" text-anchor="start">COPY</text><text x="132" y="-130" font-family="monospace" font-size="10" text-anchor="start">main.c Makefile /src/</text></g><g id="edge2" class="edge"><title>deps-&gt;copy</title><path fill="none" stroke="#000" d="M180,-167.77C180,-163.96 180,-160.15 180,-156.33"/><polygon fill="#000" stroke="#000" points="183.5 -156.24 180 -146.24 176.5 -156.24 183.5 -156.24"/></g><g id="node4" class="node"><title>workdir</title><polygon fill="none" stroke="#000" points="360 -80 0 -80 0 -51 360 -51 360 -80"/><text x="140" y="-64" font-family="monospace" font-size="10" font-weight="bold" text-anchor="start">WORKDIR</text><text x="189" y="-64" font-family="monospace" font-size="10" text-anchor="start">/src/</text></g><g id="edge3" class="edge"><title>copy-&gt;workdir</title><path fill="none" stroke="red" d="M180,-116.89C180,-109.12 180,-99.36 180,-90.43"/><polygon fill="red" stroke="red" points="183.5 -90.15 180 -80.15 176.5 -90.15 183.5 -90.15"/><text x="169.5" y="-94.8" font-family="Times,serif" font-size="14" text-anchor="middle">❌</text></g><g id="node5" class="node"><title>build</title><polygon fill="none" stroke="#000" points="360 -29 0 -29 0 0 360 0 360 -29"/><text x="137" y="-13" font-family="monospace" font-size="10" font-weight="bold" text-anchor="start">RUN</text><text x="162" y="-13" font-family="monospace" font-size="10" text-anchor="start">make build</text></g><g id="edge4" class="edge"><title>workdir-&gt;build</title><path fill="none" stroke="#000" d="M180,-50.77C180,-46.96 180,-43.15 180,-39.33"/><polygon fill="#000" stroke="#000" points="183.5 -39.24 180 -29.24 176.5 -39.24 183.5 -39.24"/></g></g></svg>